<svg height="85" width="222" xmlns="http://www.w3.org/2000/svg"><g fill="none"><path d="M0 0h85v85H0z" fill="#36348e"/><g fill="#fff"><path d="M118 55.7c2.1 0 3.8-.6 4.9-1.6 1-1 1.6-2.6 1.6-4.6v-8.7h-3.8v8.7c0 1-.2 1.9-.7 2.4-.4.5-1.1.8-2 .8-1 0-1.6-.3-2-.8-.5-.5-.7-1.3-.7-2.4v-8.7h-3.9v8.7c0 2 .6 3.6 1.7 4.6 1 1 2.7 1.6 4.9 1.6zm13-.3v-5.9c0-.6 0-1 .3-1.4.1-.4.4-.7.7-.9a2 2 0 011-.2c.5 0 .8.1 1.1.4.3.3.5.9.5 1.6v6.4h3.8V48c0-.8-.2-1.6-.5-2.1-.3-.6-.8-1-1.4-1.4-.5-.3-1.2-.4-2-.4-.7 0-1.3.1-1.9.4a3.7 3.7 0 00-1.8 1.9v.1l-.2-2.2h-3.4v11.1zM143 43c.7 0 1.2-.1 1.6-.4.3-.3.5-.8.5-1.4 0-.6-.2-1-.5-1.4-.4-.3-1-.4-1.7-.4-.8 0-1.3.1-1.7.4s-.5.8-.5 1.4c0 .6.2 1.1.5 1.4s1 .4 1.7.4zm1.8 12.4v-11H141v11zm9.8 0l4-11h-3.9l-2.3 8.4-2.3-8.5h-4l4 11.1zm10.8.3c.8 0 1.5-.1 2.2-.4.7-.2 1.3-.5 1.8-1 .5-.4.9-1 1.1-1.6l-3-1c-.2.4-.4.7-.8 1s-.7.3-1.3.3c-.5 0-1-.1-1.3-.3a2 2 0 01-.8-1l-.2-.8h7.5l.1-.5v-.2-.8c0-1-.2-2-.6-2.8-.4-.8-1-1.4-1.9-1.8-.8-.5-1.8-.7-3-.7-1.1 0-2.1.2-3 .7s-1.6 1.1-2 2c-.6.8-.8 1.9-.8 3 0 1.3.2 2.3.7 3.2.5.9 1.2 1.5 2.1 2s2 .7 3.2.7zm1.7-6.9h-4v-.5l.1-.2c.2-.5.5-.8.8-1 .3-.2.7-.4 1.2-.4.7 0 1.2.3 1.5.8.2.3.4.7.4 1.3zm9.5 6.6v-5.6c0-.5.1-1 .4-1.4.2-.4.5-.7.9-.9.4-.2.8-.2 1.2-.2h.9c.2 0 .4 0 .5.2l.4-3.2-.5-.1-.7-.1c-.8 0-1.5.2-2.1.7-.6.4-1 1-1.3 2l-.1-2.5h-3.4v11.1zm10.5.3c1.2 0 2.1-.2 2.9-.5.8-.4 1.3-.8 1.7-1.4.4-.6.6-1.2.6-2 0-.7-.2-1.4-.7-2-.6-.5-1.4-.9-2.5-1l-2-.5c-.5 0-.9-.2-1-.3-.3-.2-.4-.4-.4-.5l.2-.5.6-.3h.9a4.1 4.1 0 013 1.4l1.8-2a4.7 4.7 0 00-2-1.5c-.9-.3-1.9-.5-3-.5-1.2 0-2.2.2-3 .5-.7.4-1.3.8-1.7 1.4s-.5 1.1-.5 1.7c0 1 .3 1.7.9 2.2a6 6 0 003 1.3l1.5.3c.4 0 .7.2.9.3s.2.3.2.5c0 .3-.1.5-.4.6-.3.2-.7.2-1.2.2a4.4 4.4 0 01-3.5-1.6l-1.8 2a6 6 0 002.4 1.6c1 .4 2 .6 3 .6zm9-12.7c.8 0 1.4-.1 1.7-.4.4-.3.6-.8.6-1.4 0-.6-.2-1-.6-1.4-.3-.3-.9-.4-1.6-.4-.8 0-1.4.1-1.7.4s-.5.8-.5 1.4c0 .6.1 1.1.5 1.4s.9.4 1.7.4zm2 12.4v-11h-3.8v11zm7.6.3l1.8-.3a5 5 0 001.4-.6l-.4-2.3-.7.3-1 .2c-.4 0-.8-.1-1-.4-.3-.2-.4-.6-.4-1.1V47h3.3v-2.7h-3.3v-3.5l-3.8 1v2.5h-2V47h2v5.1c0 .8.2 1.4.4 2h.1c.4.6.8 1 1.5 1.2a6 6 0 002.1.4zm6.4 4.5c1 0 1.7-.1 2.4-.4s1.3-.9 1.7-1.6 1-1.6 1.4-2.8l4-11H218l-1.7 6.2-.6 2.4-.6-2.3-1.7-6.4h-4.2l3.4 8.4 1.3 3-.3.7c-.2.4-.4.7-.7.8-.2.2-.6.2-1 .2h-1.2l-.8-.5-.8 2.6 1.4.5 1.7.2z"/><path d="M118 55.7c2.1 0 3.8-.6 4.9-1.6 1-1 1.6-2.6 1.6-4.6v-8.7h-3.8v8.7c0 1-.2 1.9-.7 2.4-.4.5-1.1.8-2 .8-1 0-1.6-.3-2-.8-.5-.5-.7-1.3-.7-2.4v-8.7h-3.9v8.7c0 2 .6 3.6 1.7 4.6 1 1 2.7 1.6 4.9 1.6zm13-.3v-5.9c0-.6 0-1 .3-1.4.1-.4.4-.7.7-.9a2 2 0 011-.2c.5 0 .8.1 1.1.4.3.3.5.9.5 1.6v6.4h3.8V48c0-.8-.2-1.6-.5-2.1-.3-.6-.8-1-1.4-1.4-.5-.3-1.2-.4-2-.4-.7 0-1.3.1-1.9.4a3.7 3.7 0 00-1.8 1.9v.1l-.2-2.2h-3.4v11.1zM143 43c.7 0 1.2-.1 1.6-.4.3-.3.5-.8.5-1.4 0-.6-.2-1-.5-1.4-.4-.3-1-.4-1.7-.4-.8 0-1.3.1-1.7.4s-.5.8-.5 1.4c0 .6.2 1.1.5 1.4s1 .4 1.7.4zm1.8 12.4v-11H141v11zm9.8 0l4-11h-3.9l-2.3 8.4-2.3-8.5h-4l4 11.1zm10.8.3c.8 0 1.5-.1 2.2-.4.7-.2 1.3-.5 1.8-1 .5-.4.9-1 1.1-1.6l-3-1c-.2.4-.4.7-.8 1s-.7.3-1.3.3c-.5 0-1-.1-1.3-.3a2 2 0 01-.8-1l-.2-.8h7.5l.1-.5v-.2-.8c0-1-.2-2-.6-2.8-.4-.8-1-1.4-1.9-1.8-.8-.5-1.8-.7-3-.7-1.1 0-2.1.2-3 .7s-1.6 1.1-2 2c-.6.8-.8 1.9-.8 3 0 1.3.2 2.3.7 3.2.5.9 1.2 1.5 2.1 2s2 .7 3.2.7zm1.7-6.9h-4v-.5l.1-.2c.2-.5.5-.8.8-1 .3-.2.7-.4 1.2-.4.7 0 1.2.3 1.5.8.2.3.4.7.4 1.3zm9.5 6.6v-5.6c0-.5.1-1 .4-1.4.2-.4.5-.7.9-.9.4-.2.8-.2 1.2-.2h.9c.2 0 .4 0 .5.2l.4-3.2-.5-.1-.7-.1c-.8 0-1.5.2-2.1.7-.6.4-1 1-1.3 2l-.1-2.5h-3.4v11.1zm10.5.3c1.2 0 2.1-.2 2.9-.5.8-.4 1.3-.8 1.7-1.4.4-.6.6-1.2.6-2 0-.7-.2-1.4-.7-2-.6-.5-1.4-.9-2.5-1l-2-.5c-.5 0-.9-.2-1-.3-.3-.2-.4-.4-.4-.5l.2-.5.6-.3h.9a4.1 4.1 0 013 1.4l1.8-2a4.7 4.7 0 00-2-1.5c-.9-.3-1.9-.5-3-.5-1.2 0-2.2.2-3 .5-.7.4-1.3.8-1.7 1.4s-.5 1.1-.5 1.7c0 1 .3 1.7.9 2.2a6 6 0 003 1.3l1.5.3c.4 0 .7.2.9.3s.2.3.2.5c0 .3-.1.5-.4.6-.3.2-.7.2-1.2.2a4.4 4.4 0 01-3.5-1.6l-1.8 2a6 6 0 002.4 1.6c1 .4 2 .6 3 .6zm9-12.7c.8 0 1.4-.1 1.7-.4.4-.3.6-.8.6-1.4 0-.6-.2-1-.6-1.4-.3-.3-.9-.4-1.6-.4-.8 0-1.4.1-1.7.4s-.5.8-.5 1.4c0 .6.1 1.1.5 1.4s.9.4 1.7.4zm2 12.4v-11h-3.8v11zm7.6.3l1.8-.3a5 5 0 001.4-.6l-.4-2.3-.7.3-1 .2c-.4 0-.8-.1-1-.4-.3-.2-.4-.6-.4-1.1V47h3.3v-2.7h-3.3v-3.5l-3.8 1v2.5h-2V47h2v5.1c0 .8.2 1.4.4 2h.1c.4.6.8 1 1.5 1.2a6 6 0 002.1.4zm6.4 4.5c1 0 1.7-.1 2.4-.4s1.3-.9 1.7-1.6 1-1.6 1.4-2.8l4-11H218l-1.7 6.2-.6 2.4-.6-2.3-1.7-6.4h-4.2l3.4 8.4 1.3 3-.3.7c-.2.4-.4.7-.7.8-.2.2-.6.2-1 .2h-1.2l-.8-.5-.8 2.6 1.4.5 1.7.2zM118 34.1V33h-5.3v-3.7h4.9v-1.2h-5v-3.6h5.3v-1.2h-6.5v10.8zm4.8.2a4 4 0 001.6-.3c.5-.2.9-.5 1.2-.9.2-.4.4-.8.4-1.2 0-.6-.2-1-.6-1.4-.3-.4-.9-.6-1.6-.8l-1.2-.3c-.5-.1-.8-.3-1-.5a.9.9 0 01-.4-.7c0-.3.2-.6.5-.9.3-.2.7-.3 1.2-.3.4 0 .7 0 1 .2.2 0 .3.2.5.4l.3.6 1.1-.4c-.2-.5-.5-1-1-1.3a3 3 0 00-1.9-.6l-1.5.3c-.4.2-.8.5-1 .9s-.4.7-.4 1.2.1 1 .5 1.4c.3.3.9.6 1.6.8l1.4.3c.4 0 .7.2.9.4.2.2.3.5.3.7 0 .4-.2.7-.5 1-.4.2-.8.3-1.4.3-.5 0-1-.1-1.3-.3-.3-.2-.5-.6-.6-1l-1.2.3c.2.7.5 1.2 1 1.6.6.3 1.3.5 2.1.5zm7.8 0a2.7 2.7 0 00.9-.2l-.3-1.1a11.6 11.6 0 01-.5 0h-.5l-.4-.4-.2-.8v-4.7h1.7v-1h-1.7v-2h-1.2v2h-1.2v1h1.2v5c0 .4 0 .8.2 1l.1.2.8.7c.4.2.7.2 1 .2zm5.2 0a2.5 2.5 0 002.4-1.5h.1V34h1.3v-8h-1.3v4.7c0 .5 0 1-.3 1.3l-.8.7c-.3.2-.7.2-1 .2-.5 0-.9-.1-1.2-.5a2 2 0 01-.5-1.4v-5h-1.3v5c0 .8.1 1.3.4 1.8.2.4.5.8.9 1 .4.2.8.3 1.3.3zm9 0c.6 0 1-.1 1.3-.3a2.9 2.9 0 001.2-1.1h.1V34h1.2V23.3h-1.2v4h-.1l-.4-.5a2.2 2.2 0 00-2-.9 3.2 3.2 0 00-3 2c-.3.6-.4 1.3-.4 2.2 0 .9.1 1.6.4 2.2.3.7.7 1.1 1.2 1.5.5.3 1.1.5 1.8.5zm.3-1.1a2 2 0 01-1.3-.4c-.4-.3-.7-.7-.8-1.2a4.3 4.3 0 010-3.1c.1-.4.4-.8.7-1a2 2 0 011.4-.5c.5 0 .9.2 1.2.4.4.3.6.6.8 1 .2.5.3 1 .3 1.7 0 .6-.1 1.1-.3 1.6s-.4.8-.8 1a2 2 0 01-1.2.5zm6.6-8.5l.6-.3c.2-.1.3-.3.3-.6l-.3-.6a.9.9 0 00-.6-.2c-.3 0-.5 0-.6.2l-.3.6c0 .3 0 .5.3.6.1.2.3.3.6.3zm.6 9.4v-8H151v8zm4.6.2c.5 0 1 0 1.2-.2a2.4 2.4 0 001.2-1h.1v1h1.2v-5.3c0-.6 0-1.2-.3-1.5-.2-.4-.4-.7-.8-.9l-1-.4h-2.1l-1.1.7c-.3.3-.7.6-.9 1.1l1.2.4.7-.8c.3-.2.8-.4 1.4-.4.6 0 1 .2 1.3.5.3.2.4.6.4 1.2 0 .2 0 .3-.2.4l-.7.2a63.8 63.8 0 00-2.3.3 4 4 0 00-1 .4 2 2 0 00-.7.7 2 2 0 00-.3 1.1c0 .6.1 1 .4 1.4.2.3.5.6 1 .8.4.2.8.3 1.3.3zm.2-1.1c-.5 0-.9-.1-1.2-.3-.3-.3-.5-.6-.5-1 0-.3.1-.6.3-.8l.7-.4.9-.2a58.2 58.2 0 012.1-.4v1c0 .4 0 .8-.3 1a2 2 0 01-.7.8c-.4.2-.8.3-1.3.3zm7 1V29a1.8 1.8 0 011-1.6c.4-.2.7-.3 1.1-.3a3.1 3.1 0 01.8 0V26a4.6 4.6 0 00-.7 0c-.5 0-.9.1-1.3.4a2 2 0 00-.8 1V26h-1.3v8.1z"/><path d="M118 34.1V33h-5.3v-3.7h4.9v-1.2h-5v-3.6h5.3v-1.2h-6.5v10.8zm4.8.2a4 4 0 001.6-.3c.5-.2.9-.5 1.2-.9.2-.4.4-.8.4-1.2 0-.6-.2-1-.6-1.4-.3-.4-.9-.6-1.6-.8l-1.2-.3c-.5-.1-.8-.3-1-.5a.9.9 0 01-.4-.7c0-.3.2-.6.5-.9.3-.2.7-.3 1.2-.3.4 0 .7 0 1 .2.2 0 .3.2.5.4l.3.6 1.1-.4c-.2-.5-.5-1-1-1.3a3 3 0 00-1.9-.6l-1.5.3c-.4.2-.8.5-1 .9s-.4.7-.4 1.2.1 1 .5 1.4c.3.3.9.6 1.6.8l1.4.3c.4 0 .7.2.9.4.2.2.3.5.3.7 0 .4-.2.7-.5 1-.4.2-.8.3-1.4.3-.5 0-1-.1-1.3-.3-.3-.2-.5-.6-.6-1l-1.2.3c.2.7.5 1.2 1 1.6.6.3 1.3.5 2.1.5zm7.8 0a2.7 2.7 0 00.9-.2l-.3-1.1a11.6 11.6 0 01-.5 0h-.5l-.4-.4-.2-.8v-4.7h1.7v-1h-1.7v-2h-1.2v2h-1.2v1h1.2v5c0 .4 0 .8.2 1l.1.2.8.7c.4.2.7.2 1 .2zm5.2 0a2.5 2.5 0 002.4-1.5h.1V34h1.3v-8h-1.3v4.7c0 .5 0 1-.3 1.3l-.8.7c-.3.2-.7.2-1 .2-.5 0-.9-.1-1.2-.5a2 2 0 01-.5-1.4v-5h-1.3v5c0 .8.1 1.3.4 1.8.2.4.5.8.9 1 .4.2.8.3 1.3.3zm9 0c.6 0 1-.1 1.3-.3a2.9 2.9 0 001.2-1.1h.1V34h1.2V23.3h-1.2v4h-.1l-.4-.5a2.2 2.2 0 00-2-.9 3.2 3.2 0 00-3 2c-.3.6-.4 1.3-.4 2.2 0 .9.1 1.6.4 2.2.3.7.7 1.1 1.2 1.5.5.3 1.1.5 1.8.5zm.3-1.1a2 2 0 01-1.3-.4c-.4-.3-.7-.7-.8-1.2a4.3 4.3 0 010-3.1c.1-.4.4-.8.7-1a2 2 0 011.4-.5c.5 0 .9.2 1.2.4.4.3.6.6.8 1 .2.5.3 1 .3 1.7 0 .6-.1 1.1-.3 1.6s-.4.8-.8 1a2 2 0 01-1.2.5zm6.6-8.5l.6-.3c.2-.1.3-.3.3-.6l-.3-.6a.9.9 0 00-.6-.2c-.3 0-.5 0-.6.2l-.3.6c0 .3 0 .5.3.6.1.2.3.3.6.3zm.6 9.4v-8H151v8zm4.6.2c.5 0 1 0 1.2-.2a2.4 2.4 0 001.2-1h.1v1h1.2v-5.3c0-.6 0-1.2-.3-1.5-.2-.4-.4-.7-.8-.9l-1-.4h-2.1l-1.1.7c-.3.3-.7.6-.9 1.1l1.2.4.7-.8c.3-.2.8-.4 1.4-.4.6 0 1 .2 1.3.5.3.2.4.6.4 1.2 0 .2 0 .3-.2.4l-.7.2a63.8 63.8 0 00-2.3.3 4 4 0 00-1 .4 2 2 0 00-.7.7 2 2 0 00-.3 1.1c0 .6.1 1 .4 1.4.2.3.5.6 1 .8.4.2.8.3 1.3.3zm.2-1.1c-.5 0-.9-.1-1.2-.3-.3-.3-.5-.6-.5-1 0-.3.1-.6.3-.8l.7-.4.9-.2a58.2 58.2 0 012.1-.4v1c0 .4 0 .8-.3 1a2 2 0 01-.7.8c-.4.2-.8.3-1.3.3zm7 1V29a1.8 1.8 0 011-1.6c.4-.2.7-.3 1.1-.3a3.1 3.1 0 01.8 0V26a4.6 4.6 0 00-.7 0c-.5 0-.9.1-1.3.4a2 2 0 00-.8 1V26h-1.3v8.1z"/><g><path d="M42.6 22c-7 0-14 1.2-14.2 1.2l-1.4.3V43c0 .2 1 13.6 15 18.8l.6.2.6-.2a23 23 0 0015-18.7V23.5l-1.4-.3c-.3 0-7.2-1.2-14.2-1.2zm14.2 9.7H54v-7.5l2.6.4h.2zm-3.1 20v-7.9h3c-.2 1.4-1 4.6-3 8zM43 40.2h13.8v2.3H43zm6 17l-2.2 1.5V43.8h2.1zm-15.7-4.6a2 2 0 003.6 0 2 2 0 003.5 0c.3.5.7.9 1.2 1v2.1a2 2 0 01-1.2-1 2 2 0 01-3.5 0 2 2 0 01-2.2 1c-.8-.7-1.5-1.5-2.1-2.3l.7-.8zm8.3-2.8v1.7a2 2 0 01-1.2-1 2 2 0 01-3.5 0 2 2 0 01-3.6 0 2 2 0 01-2 1.1l-1-1.8zm-3 8.1a2 2 0 001.8-1.1c.3.5.7.9 1.2 1v2.5a22 22 0 01-5.1-3l.4-.5a2 2 0 001.7 1.1zm4.4-21h13.8v2H43zm0-3.7h13.8v2.2H43zm6.8-9.4l2.8.3v7.7h-2.8zm-4.3 8v-8.3l2.9.2v8zm-1.4-8.3v8.3h-2.8v-8.3h-1.2a67.6 67.6 0 015 0zM33 24l2.8-.3v8h-2.8zm7-.6v8.3h-2.8v-8.1l2.8-.2zm-8.4.8v7.5h-3.1v-7l.2-.1 2.9-.4zM41.6 33v15.2H29.8c-1.2-3-1.4-5.2-1.4-5.2V33zM43 43.8h2.4v15.5h.1L43 60.5zm7.3 0h2v10l-2 2.1z"/><path d="M32.2 35.4l-1 1-1-1 1-1zM34.7 35.4l-1 1-.9-1 1-1zM37.2 35.4l-1 1-.9-1 1-1zM39.7 35.4l-.9 1-1-1 1-1zM32.2 38l-1 1-1-1 1-.9zM34.7 38l-1 1-.9-1 1-.9zM37.2 38l-1 1-.9-1 1-.9zM39.7 38l-.9 1-1-1 1-.9zM32.2 40.7l-1 1-1-1 1-1zM34.7 40.7l-1 1-.9-1 1-1zM37.2 40.7l-1 1-.9-1 1-1zM39.7 40.7l-.9 1-1-1 1-1zM32.2 43.3l-1 1-.9-1 1-1zM34.7 43.3l-1 1-.9-1 1-1zM37.2 43.3l-1 1-.9-1 1-1zM39.7 43.3l-.9 1-1-1 1-1zM32.2 45.9l-1 .9-1-1 1-.9zM34.7 45.9l-1 .9-.9-1 1-.9zM37.2 45.9l-1 .9-.9-1 1-.9zM39.7 45.9l-.9.9-1-1 1-.9z"/></g></g></g></svg>