<svg xmlns="http://www.w3.org/2000/svg" xmlns:xlink="http://www.w3.org/1999/xlink" width="163px" height="43px" viewBox="0 0 163 43"><title>Logo Copy</title><g id="Homepage-1" stroke="none" stroke-width="1" fill="none" fill-rule="evenodd"><g id="Logo-Copy" fill="#FFFFFF"><path d="M50.52,37.24 C52.856,37.24 54.62,36.684 55.812,35.572 C57.004,34.46 57.6,32.784 57.6,30.544 L57.6,30.544 L57.6,21.16 L53.472,21.16 L53.472,30.616 C53.472,31.752 53.228,32.6 52.74,33.16 C52.252,33.72 51.512,34 50.52,34 C49.544,34 48.812,33.72 48.324,33.16 C47.836,32.6 47.592,31.752 47.592,30.616 L47.592,30.616 L47.592,21.16 L43.44,21.16 L43.44,30.544 C43.44,32.784 44.04,34.46 45.24,35.572 C46.44,36.684 48.2,37.24 50.52,37.24 Z M64.584,37 L64.584,30.64 C64.584,29.968 64.68,29.432 64.872,29.032 C65.064,28.632 65.328,28.34 65.664,28.156 C66,27.972 66.36,27.88 66.744,27.88 C67.24,27.88 67.648,28.04 67.968,28.36 C68.288,28.68 68.448,29.256 68.448,30.088 L68.448,30.088 L68.448,37 L72.528,37 L72.528,29.008 C72.528,28.064 72.352,27.28 72,26.656 C71.648,26.032 71.164,25.56 70.548,25.24 C69.932,24.92 69.208,24.76 68.376,24.76 C67.608,24.76 66.916,24.908 66.3,25.204 C65.684,25.5 65.172,25.936 64.764,26.512 C64.611,26.728 64.4754375,26.96425 64.3573125,27.22075 L64.278,27.407 L64.152,25 L60.504,25 L60.504,37 L64.584,37 Z M77.424,23.608 C78.24,23.608 78.84,23.452 79.224,23.14 C79.608,22.828 79.8,22.336 79.8,21.664 C79.8,20.976 79.608,20.476 79.224,20.164 C78.84,19.852 78.24,19.696 77.424,19.696 C76.592,19.696 75.988,19.852 75.612,20.164 C75.236,20.476 75.048,20.976 75.048,21.664 C75.048,22.336 75.236,22.828 75.612,23.14 C75.988,23.452 76.592,23.608 77.424,23.608 Z M79.464,37 L79.464,25 L75.384,25 L75.384,37 L79.464,37 Z M90.072,37 L94.392,25 L90.168,25 L87.648,34.144 L85.176,25 L80.88,25 L85.2,37 L90.072,37 Z M101.688,37.24 C102.52,37.24 103.316,37.12 104.076,36.88 C104.836,36.64 105.492,36.284 106.044,35.812 C106.596,35.34 106.984,34.76 107.208,34.072 L107.208,34.072 L103.944,32.992 C103.768,33.424 103.5,33.76 103.14,34 C102.78,34.24 102.296,34.36 101.688,34.36 C101.144,34.36 100.68,34.252 100.296,34.036 C99.912,33.82 99.616,33.468 99.408,32.98 C99.304,32.736 99.226,32.455 99.174,32.137 L99.159,32.032 L107.352,32.032 C107.376,31.888 107.3955,31.717 107.4105,31.519 L107.424,31.312 C107.44,31.024 107.448,30.736 107.448,30.448 C107.448,29.344 107.216,28.364 106.752,27.508 C106.288,26.652 105.612,25.98 104.724,25.492 C103.836,25.004 102.76,24.76 101.496,24.76 C100.264,24.76 99.172,25.008 98.22,25.504 C97.268,26 96.528,26.712 96,27.64 C95.472,28.568 95.208,29.688 95.208,31 C95.208,32.312 95.472,33.432 96,34.36 C96.528,35.288 97.276,36 98.244,36.496 C99.212,36.992 100.36,37.24 101.688,37.24 Z M103.567,29.848 L99.186,29.848 L99.2038125,29.74075 C99.2325625,29.58575 99.2670625,29.43975 99.3073125,29.30275 L99.372,29.104 C99.556,28.592 99.828,28.216 100.188,27.976 C100.548,27.736 100.984,27.616 101.496,27.616 C102.216,27.616 102.748,27.872 103.092,28.384 C103.3328,28.7424 103.48932,29.21056 103.56156,29.78848 L103.567,29.848 Z M113.808,37 L113.808,30.952 C113.808,30.328 113.932,29.812 114.18,29.404 C114.428,28.996 114.76,28.688 115.176,28.48 C115.592,28.272 116.04,28.168 116.52,28.168 C116.872,28.168 117.172,28.188 117.42,28.228 C117.668,28.268 117.872,28.32 118.032,28.384 L118.032,28.384 L118.44,25.024 C118.312,24.944 118.14,24.88 117.924,24.832 C117.708,24.784 117.448,24.76 117.144,24.76 C116.216,24.76 115.452,25.008 114.852,25.504 C114.252,26 113.8,26.696 113.496,27.592 L113.496,27.592 L113.328,25 L109.728,25 L109.728,37 L113.808,37 Z M125.088,37.24 C126.352,37.24 127.4,37.06 128.232,36.7 C129.064,36.34 129.688,35.848 130.104,35.224 C130.52,34.6 130.728,33.896 130.728,33.112 C130.728,32.28 130.456,31.568 129.912,30.976 C129.368,30.384 128.48,29.976 127.248,29.752 L127.248,29.752 L125.064,29.32 C124.52,29.208 124.148,29.076 123.948,28.924 C123.748,28.772 123.648,28.592 123.648,28.384 C123.648,28.192 123.712,28.032 123.84,27.904 C123.968,27.776 124.164,27.676 124.428,27.604 C124.692,27.532 125.016,27.496 125.4,27.496 C126.008,27.496 126.616,27.632 127.224,27.904 C127.832,28.176 128.328,28.552 128.712,29.032 L128.712,29.032 L130.656,26.824 C130.112,26.152 129.376,25.64 128.448,25.288 C127.52,24.936 126.448,24.76 125.232,24.76 C123.936,24.76 122.872,24.948 122.04,25.324 C121.208,25.7 120.592,26.188 120.192,26.788 C119.792,27.388 119.592,28.016 119.592,28.672 C119.592,29.648 119.908,30.436 120.54,31.036 C121.172,31.636 122.24,32.088 123.744,32.392 L123.744,32.392 L125.424,32.728 C125.904,32.824 126.224,32.94 126.384,33.076 C126.544,33.212 126.624,33.392 126.624,33.616 C126.624,33.92 126.464,34.144 126.144,34.288 C125.824,34.432 125.416,34.504 124.92,34.504 C124.104,34.504 123.364,34.332 122.7,33.988 C122.036,33.644 121.504,33.216 121.104,32.704 L121.104,32.704 L119.184,34.96 C119.856,35.696 120.708,36.26 121.74,36.652 C122.772,37.044 123.888,37.24 125.088,37.24 Z M134.88,23.608 C135.696,23.608 136.296,23.452 136.68,23.14 C137.064,22.828 137.256,22.336 137.256,21.664 C137.256,20.976 137.064,20.476 136.68,20.164 C136.296,19.852 135.696,19.696 134.88,19.696 C134.048,19.696 133.444,19.852 133.068,20.164 C132.692,20.476 132.504,20.976 132.504,21.664 C132.504,22.336 132.692,22.828 133.068,23.14 C133.444,23.452 134.048,23.608 134.88,23.608 Z M136.92,37 L136.92,25 L132.84,25 L132.84,37 L136.92,37 Z M145.224,37.24 C145.864,37.24 146.488,37.16 147.096,37 C147.704,36.84 148.208,36.616 148.608,36.328 L148.608,36.328 L148.176,33.808 C147.952,33.984 147.7,34.116 147.42,34.204 C147.14,34.292 146.808,34.336 146.424,34.336 C145.928,34.336 145.54,34.212 145.26,33.964 C144.98,33.716 144.84,33.304 144.84,32.728 L144.84,32.728 L144.84,27.904 L148.416,27.904 L148.416,25 L144.84,25 L144.84,21.184 L140.76,22.312 L140.76,25 L138.696,25 L138.696,27.904 L140.76,27.904 L140.76,33.4 C140.7744,34.2352 140.92812,34.92136 141.22116,35.45848 L141.324,35.632 C141.684,36.192 142.196,36.6 142.86,36.856 C143.524,37.112 144.312,37.24 145.224,37.24 Z M152.088,42.16 C153.096,42.16 153.96,41.992 154.68,41.656 C155.4,41.32 156.024,40.776 156.552,40.024 C157.08,39.272 157.568,38.264 158.016,37 L158.016,37 L162.384,25 L158.328,25 L156.48,31.744 L155.808,34.384 L155.232,31.84 L153.384,25 L148.896,25 L152.496,34 L153.888,37.264 L153.576,38.008 C153.4,38.456 153.164,38.76 152.868,38.92 C152.572,39.08 152.192,39.16 151.728,39.16 C151.232,39.16 150.824,39.116 150.504,39.028 C150.184,38.94 149.88,38.792 149.592,38.584 L149.592,38.584 L148.776,41.344 C149.192,41.6 149.68,41.8 150.24,41.944 C150.8,42.088 151.416,42.16 152.088,42.16 Z" id="University" fill-rule="nonzero"></path><path d="M50.5227273,14 L50.5227273,12.75 L44.8181818,12.75 L44.8181818,8.79545455 L50.0681818,8.79545455 L50.0681818,7.54545455 L44.8181818,7.54545455 L44.8181818,3.61363636 L50.4318182,3.61363636 L50.4318182,2.36363636 L43.4090909,2.36363636 L43.4090909,14 L50.5227273,14 Z M55.7272727,14.1818182 C56.405303,14.1818182 57,14.0681818 57.5113636,13.8409091 C58.0227273,13.6136364 58.4214015,13.3030303 58.7073864,12.9090909 C58.9933712,12.5151515 59.1363636,12.0681818 59.1363636,11.5681818 C59.1363636,10.9583333 58.9450758,10.4592803 58.5625,10.0710227 C58.1799242,9.68276515 57.5984848,9.39393939 56.8181818,9.20454545 L56.8181818,9.20454545 L55.5227273,8.88636364 C55.0075758,8.75757576 54.6287879,8.59659091 54.3863636,8.40340909 C54.1439394,8.21022727 54.0227273,7.9469697 54.0227273,7.61363636 C54.0227273,7.23863636 54.1998106,6.92897727 54.5539773,6.68465909 C54.9081439,6.44034091 55.3522727,6.31818182 55.8863636,6.31818182 C56.2765152,6.31818182 56.5965909,6.38068182 56.8465909,6.50568182 C57.0965909,6.63068182 57.2945076,6.78882576 57.4403409,6.98011364 C57.5861742,7.17140152 57.6969697,7.36742424 57.7727273,7.56818182 L57.7727273,7.56818182 L58.9772727,7.22727273 C58.7689394,6.60606061 58.4176136,6.10606061 57.9232955,5.72727273 C57.4289773,5.34848485 56.75,5.15909091 55.8863636,5.15909091 C55.2727273,5.15909091 54.7244318,5.26704545 54.2414773,5.48295455 C53.7585227,5.69886364 53.3778409,5.99621212 53.0994318,6.375 C52.8210227,6.75378788 52.6818182,7.18939394 52.6818182,7.68181818 C52.6818182,8.28409091 52.8683712,8.78503788 53.2414773,9.18465909 C53.6145833,9.5842803 54.2007576,9.87878788 55,10.0681818 L55,10.0681818 L56.4545455,10.4090909 C56.8939394,10.5113636 57.219697,10.6657197 57.4318182,10.8721591 C57.6439394,11.0785985 57.75,11.3333333 57.75,11.6363636 C57.75,12.0113636 57.5653409,12.3323864 57.1960227,12.5994318 C56.8267045,12.8664773 56.3295455,13 55.7045455,13 C55.155303,13 54.7111742,12.8825758 54.3721591,12.6477273 C54.0331439,12.4128788 53.8030303,12.0606061 53.6818182,11.5909091 L53.6818182,11.5909091 L52.4090909,11.9090909 C52.5643939,12.6515152 52.9337121,13.2159091 53.5170455,13.6022727 C54.1003788,13.9886364 54.8371212,14.1818182 55.7272727,14.1818182 Z M64.1136364,14.1136364 C64.3636364,14.1136364 64.5700758,14.0956439 64.7329545,14.0596591 C64.8958333,14.0236742 65.0227273,13.9886364 65.1136364,13.9545455 L65.1136364,13.9545455 L64.8409091,12.75 C64.7840909,12.7613636 64.7083333,12.7755682 64.6136364,12.7926136 C64.5189394,12.8096591 64.3977273,12.8181818 64.25,12.8181818 C64.0530303,12.8181818 63.8664773,12.7869318 63.6903409,12.7244318 C63.5142045,12.6619318 63.3702652,12.5369318 63.2585227,12.3494318 C63.1467803,12.1619318 63.0909091,11.8787879 63.0909091,11.5 L63.0909091,11.5 L63.09,6.41 L64.9545455,6.40909091 L64.9545455,5.27272727 L63.09,5.273 L63.0909091,3.18181818 L61.75,3.18181818 L61.75,5.273 L60.4318182,5.27272727 L60.4318182,6.40909091 L61.75,6.41 L61.75,11.8636364 C61.75,12.2987013 61.8369666,12.6697588 62.0108998,12.9768089 L62.1051136,13.125 C62.3418561,13.4583333 62.6410985,13.7064394 63.0028409,13.8693182 C63.3645833,14.032197 63.7348485,14.1136364 64.1136364,14.1136364 Z M69.7954545,14.1136364 C70.4545455,14.1136364 71,13.9592803 71.4318182,13.6505682 C71.8636364,13.3418561 72.1818182,12.9659091 72.3863636,12.5227273 L72.3863636,12.5227273 L72.4772727,12.5227273 L72.4772727,14 L73.8181818,14 L73.8181818,5.27272727 L72.4772727,5.27272727 L72.4772727,10.4318182 C72.4772727,10.9772727 72.3589015,11.4261364 72.1221591,11.7784091 C71.8854167,12.1306818 71.59375,12.3920455 71.2471591,12.5625 C70.9005682,12.7329545 70.5606061,12.8181818 70.2272727,12.8181818 C69.6704545,12.8181818 69.2130682,12.6287879 68.8551136,12.25 C68.4971591,11.8712121 68.3181818,11.3636364 68.3181818,10.7272727 L68.3181818,10.7272727 L68.3181818,5.27272727 L66.9772727,5.27272727 L66.9772727,10.8181818 C66.9772727,11.5606061 67.0984848,12.1751894 67.3409091,12.6619318 C67.5833333,13.1486742 67.9166667,13.5123106 68.3409091,13.7528409 C68.7651515,13.9933712 69.25,14.1136364 69.7954545,14.1136364 Z M79.5681818,14.1818182 C80.1287879,14.1818182 80.5776515,14.0880682 80.9147727,13.9005682 C81.2518939,13.7130682 81.5113636,13.499053 81.6931818,13.2585227 C81.875,13.0179924 82.0151515,12.8181818 82.1136364,12.6590909 L82.1136364,12.6590909 L82.2727273,12.6590909 L82.2727273,14 L83.5681818,14 L83.5681818,2.36363636 L82.2272727,2.36363636 L82.2272727,6.65909091 L82.1136364,6.65909091 C82.0151515,6.50757576 81.8778409,6.31344697 81.7017045,6.07670455 C81.5255682,5.83996212 81.2717803,5.62784091 80.9403409,5.44034091 C80.6089015,5.25284091 80.1590909,5.15909091 79.5909091,5.15909091 C78.8560606,5.15909091 78.2083333,5.34280303 77.6477273,5.71022727 C77.0871212,6.07765152 76.6496212,6.59848485 76.3352273,7.27272727 C76.0208333,7.9469697 75.8636364,8.74242424 75.8636364,9.65909091 C75.8636364,10.5833333 76.0208333,11.3835227 76.3352273,12.0596591 C76.6496212,12.7357955 77.0852273,13.2585227 77.6420455,13.6278409 C78.1988636,13.9971591 78.8409091,14.1818182 79.5681818,14.1818182 Z M79.75,12.9772727 C79.1893939,12.9772727 78.7206439,12.8285985 78.34375,12.53125 C77.9668561,12.2339015 77.6827652,11.8323864 77.4914773,11.3267045 C77.3001894,10.8210227 77.2045455,10.2575758 77.2045455,9.63636364 C77.2045455,9.02272727 77.2982955,8.46875 77.4857955,7.97443182 C77.6732955,7.48011364 77.9554924,7.08806818 78.3323864,6.79829545 C78.7092803,6.50852273 79.1818182,6.36363636 79.75,6.36363636 C80.2954545,6.36363636 80.7537879,6.50094697 81.125,6.77556818 C81.4962121,7.05018939 81.7765152,7.43276515 81.9659091,7.92329545 C82.155303,8.41382576 82.25,8.98484848 82.25,9.63636364 C82.25,10.2954545 82.1534091,10.875947 81.9602273,11.3778409 C81.7670455,11.8797348 81.4848485,12.2717803 81.1136364,12.5539773 C80.7424242,12.8361742 80.2878788,12.9772727 79.75,12.9772727 Z M86.8863636,3.81818182 C87.1477273,3.81818182 87.3721591,3.72916667 87.5596591,3.55113636 C87.7471591,3.37310606 87.8409091,3.15909091 87.8409091,2.90909091 C87.8409091,2.65909091 87.7471591,2.44507576 87.5596591,2.26704545 C87.3721591,2.08901515 87.1477273,2 86.8863636,2 C86.625,2 86.4005682,2.08901515 86.2130682,2.26704545 C86.0255682,2.44507576 85.9318182,2.65909091 85.9318182,2.90909091 C85.9318182,3.15909091 86.0255682,3.37310606 86.2130682,3.55113636 C86.4005682,3.72916667 86.625,3.81818182 86.8863636,3.81818182 Z M87.5454545,14 L87.5454545,5.27272727 L86.2045455,5.27272727 L86.2045455,14 L87.5454545,14 Z M92.5681818,14.2045455 C93.0757576,14.2045455 93.5056818,14.1287879 93.8579545,13.9772727 C94.2102273,13.8257576 94.4924242,13.6420455 94.7045455,13.4261364 C94.9166667,13.2102273 95.0681818,13.0075758 95.1590909,12.8181818 L95.1590909,12.8181818 L95.2272727,12.8181818 L95.2272727,14 L96.5681818,14 L96.5681818,8.25 C96.5681818,7.55681818 96.4545455,7.00378788 96.2272727,6.59090909 C96,6.1780303 95.7149621,5.86931818 95.3721591,5.66477273 C95.0293561,5.46022727 94.6751894,5.32481061 94.3096591,5.25852273 C93.9441288,5.19223485 93.6212121,5.15909091 93.3409091,5.15909091 C92.9015152,5.15909091 92.4554924,5.21875 92.0028409,5.33806818 C91.5501894,5.45738636 91.1335227,5.6657197 90.7528409,5.96306818 C90.3721591,6.26041667 90.0681818,6.67424242 89.8409091,7.20454545 L89.8409091,7.20454545 L91.1136364,7.65909091 C91.2613636,7.34090909 91.5170455,7.04166667 91.8806818,6.76136364 C92.2443182,6.48106061 92.7462121,6.34090909 93.3863636,6.34090909 C94.0037879,6.34090909 94.4649621,6.49621212 94.7698864,6.80681818 C95.0748106,7.11742424 95.2272727,7.5530303 95.2272727,8.11363636 L95.2272727,8.11363636 L95.2272727,8.15909091 C95.2272727,8.375 95.1505682,8.52651515 94.9971591,8.61363636 C94.84375,8.70075758 94.6013258,8.76231061 94.2698864,8.79829545 C93.938447,8.8342803 93.5075758,8.88636364 92.9772727,8.95454545 C92.5719697,9.00757576 92.1695076,9.07859848 91.7698864,9.16761364 C91.3702652,9.25662879 91.0056818,9.39015152 90.6761364,9.56818182 C90.3465909,9.74621212 90.0833333,9.99147727 89.8863636,10.3039773 C89.6893939,10.6164773 89.5909091,11.0227273 89.5909091,11.5227273 C89.5909091,12.0909091 89.7234848,12.5748106 89.9886364,12.9744318 C90.2537879,13.374053 90.6117424,13.6789773 91.0625,13.8892045 C91.5132576,14.0994318 92.0151515,14.2045455 92.5681818,14.2045455 Z M92.7727273,13 C92.2386364,13 91.7982955,12.8816288 91.4517045,12.6448864 C91.1051136,12.4081439 90.9318182,12.0568182 90.9318182,11.5909091 C90.9318182,11.25 91.0236742,10.9801136 91.2073864,10.78125 C91.3910985,10.5823864 91.6335227,10.4327652 91.9346591,10.3323864 C92.2357955,10.2320076 92.5606061,10.1590909 92.9090909,10.1136364 C93.0530303,10.094697 93.2414773,10.0710227 93.4744318,10.0426136 C93.7073864,10.0142045 93.9479167,9.98011364 94.1960227,9.94034091 C94.4441288,9.90056818 94.6638258,9.8532197 94.8551136,9.79829545 C95.0464015,9.74337121 95.1704545,9.68181818 95.2272727,9.61363636 L95.2272727,9.61363636 L95.2272727,10.8409091 C95.2272727,11.2045455 95.1335227,11.5511364 94.9460227,11.8806818 C94.7585227,12.2102273 94.4820076,12.4791667 94.1164773,12.6875 C93.750947,12.8958333 93.3030303,13 92.7727273,13 Z M100.363636,14 L100.363636,8.47727273 C100.363636,8.08333333 100.45928,7.73200758 100.650568,7.42329545 C100.841856,7.11458333 101.10322,6.87215909 101.434659,6.69602273 C101.766098,6.51988636 102.143939,6.43181818 102.568182,6.43181818 C102.746212,6.43181818 102.91572,6.44412879 103.076705,6.46875 C103.237689,6.49337121 103.340909,6.51136364 103.386364,6.52272727 L103.386364,6.52272727 L103.386364,5.15909091 C103.310606,5.15151515 103.198864,5.14583333 103.051136,5.14204545 C102.903409,5.13825758 102.780303,5.13636364 102.681818,5.13636364 C102.159091,5.13636364 101.689394,5.27083333 101.272727,5.53977273 C100.856061,5.80871212 100.568182,6.15909091 100.409091,6.59090909 L100.409091,6.59090909 L100.318182,6.59090909 L100.318182,5.27272727 L99.0227273,5.27272727 L99.0227273,14 L100.363636,14 Z" id="Estudiar" fill-rule="nonzero"></path><g id="Logo-Mark" transform="translate(0.000000, 0.917969)"><path d="M14.8871461,0 C8.1859154,0 1.61663757,1.13664992 1.34077745,1.18535716 L0,1.42003739 L0.000442972147,20.0943941 L0.00398548248,20.1838381 C0.0128413443,20.3126909 1.03746357,33.1390781 14.3301126,38.0257429 L14.888918,38.2298698 L15.446394,38.0248578 C28.7151319,33.1474916 29.7632231,20.3135763 29.7729646,20.1842807 L29.7765083,1.42003739 L28.4352883,1.18535716 C28.1585426,1.13709271 21.5835062,0 14.8871461,0 Z M28.457426,9.24507793 L25.7329201,9.24507793 L25.7329201,2.11035184 C27.183953,2.30606639 28.1089494,2.46591471 28.2085778,2.48318364 L28.4583111,2.52702014 L28.457426,9.24507793 Z M25.4690151,28.3812671 L25.4690151,20.7971075 L28.3626696,20.7971075 C28.1430442,22.1338999 27.455385,25.1820869 25.4690151,28.3812671 Z M15.2493512,17.2844287 L28.4565409,17.2844287 L28.4565409,19.4793545 L15.2493512,19.4793545 L15.2493512,17.2844287 Z M20.9175451,33.4999543 C20.2914356,33.9963254 19.613078,34.4718859 18.8793699,34.919107 L18.8793699,20.7971075 L20.9175451,20.7971075 L20.9175451,33.4999543 Z M5.99453346,29.0946068 C6.29607556,29.734 6.94609532,30.1763507 7.69972919,30.1763507 C8.45292024,30.1763507 9.1033824,29.734 9.4049245,29.0946068 C9.7064666,29.734 10.3564876,30.1763507 11.1101215,30.1763507 C11.8641981,30.1763507 12.5142189,29.734 12.815761,29.0946068 C13.0345008,29.5590968 13.4387711,29.9168731 13.9315999,30.0793782 L13.9315999,32.0794739 C13.4387711,31.9169688 13.0345008,31.5591922 12.815761,31.095145 C12.5142189,31.7336527 11.8641981,32.1764464 11.1101215,32.1764464 C10.3569304,32.1764464 9.70690939,31.7336527 9.4049245,31.095145 C9.1033824,31.7336527 8.45292024,32.1764464 7.69972919,32.1764464 C7.56202054,32.1764464 7.430512,32.1574084 7.30121641,32.1295124 C6.5511249,31.3940331 5.8931339,30.6324289 5.31794566,29.8663969 C5.60797512,29.6759958 5.84531218,29.4116467 5.99453346,29.0946068 Z M13.9315999,26.3785144 L13.9315999,28.0792825 C13.4387711,27.917663 13.0345008,27.5594436 12.815761,27.0949536 C12.5142189,27.7343469 11.8641981,28.176255 11.1101215,28.176255 C10.3569304,28.176255 9.70690939,27.7343469 9.4049245,27.0949536 C9.1033824,27.7343469 8.45292024,28.176255 7.69972919,28.176255 C6.94609532,28.176255 6.29607556,27.7343469 5.99453346,27.0949536 C5.69299136,27.7343469 5.04252778,28.176255 4.28889391,28.176255 C4.24815694,28.176255 4.21096234,28.1749254 4.1750961,28.1722687 C3.80757783,27.563871 3.48655295,26.9625585 3.20626492,26.3785144 L13.9315999,26.3785144 Z M11.1101215,34.1760995 C11.8641981,34.1760995 12.5142189,33.733306 12.815761,33.0943556 C13.0345008,33.5584028 13.4387711,33.9157398 13.9315999,34.0791304 L13.9315999,36.4538294 C12.0222761,35.6665432 10.3994388,34.6990406 9.02190941,33.6305808 C9.17865817,33.4764888 9.30972398,33.2953837 9.4049245,33.0943556 C9.7064666,33.733306 10.3564876,34.1760995 11.1101215,34.1760995 Z M15.2493512,14.0360992 L28.4569834,14.0360992 L28.4569834,15.9666774 L15.2493512,15.9666774 L15.2493512,14.0360992 Z M15.2493512,10.5628293 L28.457426,10.5628293 L28.457426,12.7179036 L15.2493512,12.7179036 L15.2493512,10.5628293 Z M21.7043886,1.65427506 C22.6865037,1.74460485 23.6013152,1.84379034 24.4147262,1.94209041 L24.4147262,9.24507793 L21.7043886,9.24507793 L21.7043886,1.65427506 Z M17.6749721,9.24507793 L17.6749721,1.38018615 C18.6057232,1.41959474 19.5147779,1.47627227 20.3861947,1.54313403 L20.3861947,9.24507793 L17.6749721,9.24507793 Z M16.3576616,1.36424549 L16.3576616,9.24507793 L13.6464407,9.24507793 L13.6464407,1.36424549 L12.4805667,1.36424549 C13.2736091,1.33457835 14.0790487,1.3177522 14.8871461,1.3177522 C15.6948007,1.3177522 16.4997982,1.33457835 17.2923979,1.36424549 L16.3576616,1.36424549 Z M5.58893482,1.91463733 C6.40854482,1.81766564 7.32114066,1.72069388 8.30015619,1.63302084 L8.30015619,9.24507793 L5.58893482,9.24507793 L5.58893482,1.91463733 Z M12.3286876,1.37044456 L12.3286876,9.24507793 L9.61790922,9.24507793 L9.61790922,1.52586508 C10.4902116,1.46121729 11.3997077,1.40719639 12.3286876,1.37044456 Z M4.27073923,2.07935646 L4.27073923,9.24507793 L1.31863814,9.24507793 L1.31819516,2.52702014 L1.56793053,2.48318364 C1.6724297,2.46502912 2.6886395,2.28924039 4.27073923,2.07935646 Z M13.9315999,10.5632718 L13.9315999,25.0603188 L2.62664874,25.0603188 C1.50948175,22.2747074 1.32350855,20.156385 1.31996621,20.1160908 L1.31908069,10.5632718 L13.9315999,10.5632718 Z M15.2493512,20.7971075 L17.5616168,20.7971075 L17.5616168,35.6010088 L17.6776291,35.6010088 C16.9222241,35.9955374 16.1132405,36.360399 15.2493512,36.6893943 L15.2493512,20.7971075 Z M22.2357407,20.7971075 L24.1508212,20.7971075 L24.1508212,30.259594 C23.5880311,30.9733765 22.9530655,31.6787483 22.2357407,32.3584357 L22.2357407,20.7971075 Z" id="Vector"></path><path d="M4.66572877,12.1590573 L4.66572877,13.421903 L3.40288314,13.421903 L3.40288314,12.1590573 L4.66572877,12.1590573 Z" id="Vector" transform="translate(4.034306, 12.790480) rotate(44.995815) translate(-4.034306, -12.790480) "></path><path d="M7.07478219,12.1596065 L7.07478219,13.4224522 L5.81193656,13.4224522 L5.81193656,12.1596065 L7.07478219,12.1596065 Z" id="Vector" transform="translate(6.443359, 12.791029) rotate(44.976503) translate(-6.443359, -12.791029) "></path><path d="M9.48408815,12.1596065 L9.48408815,13.4224522 L8.22124251,13.4224522 L8.22124251,12.1596065 L9.48408815,12.1596065 Z" id="Vector" transform="translate(8.852665, 12.791029) rotate(44.968399) translate(-8.852665, -12.791029) "></path><path d="M11.8932672,12.1590571 L11.8932672,13.4219027 L10.6304223,13.4219027 L10.6304223,12.1590571 L11.8932672,12.1590571 Z" id="Vector" transform="translate(11.261845, 12.790480) rotate(44.995815) translate(-11.261845, -12.790480) "></path><path d="M4.66695723,14.6757239 L4.66695723,15.9385703 L3.40366826,15.9385703 L3.40366826,14.6757239 L4.66695723,14.6757239 Z" id="Vector" transform="translate(4.035313, 15.307147) rotate(44.998044) translate(-4.035313, -15.307147) "></path><path d="M7.07465567,14.6756588 L7.07465567,15.9385051 L5.81181004,15.9385051 L5.81181004,14.6756588 L7.07465567,14.6756588 Z" id="Vector" transform="translate(6.443233, 15.307082) rotate(45.012019) translate(-6.443233, -15.307082) "></path><path d="M9.48433933,14.6757237 L9.48433933,15.93857 L8.22105119,15.93857 L8.22105119,14.6757237 L9.48433933,14.6757237 Z" id="Vector" transform="translate(8.852695, 15.307147) rotate(44.998044) translate(-8.852695, -15.307147) "></path><path d="M11.8935197,14.6757544 L11.8935197,15.9386008 L10.6302308,15.9386008 L10.6302308,14.6757544 L11.8935197,14.6757544 Z" id="Vector" transform="translate(11.261875, 15.307178) rotate(45.000000) translate(-11.261875, -15.307178) "></path><path d="M4.66572852,17.1922603 L4.66572852,18.4551067 L3.40288288,18.4551067 L3.40288288,17.1922603 L4.66572852,17.1922603 Z" id="Vector" transform="translate(4.034306, 17.823684) rotate(44.995815) translate(-4.034306, -17.823684) "></path><path d="M7.07478194,17.1922603 L7.07478194,18.4551067 L5.8119363,18.4551067 L5.8119363,17.1922603 L7.07478194,17.1922603 Z" id="Vector" transform="translate(6.443359, 17.823683) rotate(45.003917) translate(-6.443359, -17.823683) "></path><path d="M9.4840879,17.1922603 L9.4840879,18.4551067 L8.22124226,18.4551067 L8.22124226,17.1922603 L9.4840879,17.1922603 Z" id="Vector" transform="translate(8.852665, 17.823684) rotate(44.995815) translate(-8.852665, -17.823684) "></path><path d="M11.893267,17.1922601 L11.893267,18.4551064 L10.6304221,18.4551064 L10.6304221,17.1922601 L11.893267,17.1922601 Z" id="Vector" transform="translate(11.261845, 17.823683) rotate(44.995815) translate(-11.261845, -17.823683) "></path><path d="M4.66809187,19.7091102 L4.66809187,20.9715125 L3.40524552,20.9715125 L3.40524552,19.7091102 L4.66809187,19.7091102 Z" id="Vector" transform="translate(4.036669, 20.340311) rotate(44.991360) translate(-4.036669, -20.340311) "></path><path d="M7.07579035,19.708679 L7.07579035,20.9710813 L5.8133871,20.9710813 L5.8133871,19.708679 L7.07579035,19.708679 Z" id="Vector" transform="translate(6.444589, 20.339880) rotate(44.981835) translate(-6.444589, -20.339880) "></path><path d="M9.48547407,19.70911 L9.48547407,20.9715123 L8.22262843,20.9715123 L8.22262843,19.70911 L9.48547407,19.70911 Z" id="Vector" transform="translate(8.854051, 20.340311) rotate(44.991360) translate(-8.854051, -20.340311) "></path><path d="M11.894653,19.7086825 L11.894653,20.9710848 L10.6318081,20.9710848 L10.6318081,19.7086825 L11.894653,19.7086825 Z" id="Vector" transform="translate(11.263231, 20.339884) rotate(44.963944) translate(-11.263231, -20.339884) "></path><path d="M4.66572852,22.1307369 L4.66572852,23.3935833 L3.40288288,23.3935833 L3.40288288,22.1307369 L4.66572852,22.1307369 Z" id="Vector" transform="translate(4.034306, 22.762160) rotate(44.995815) translate(-4.034306, -22.762160) "></path><path d="M7.07478194,22.1307369 L7.07478194,23.3935832 L5.8119363,23.3935832 L5.8119363,22.1307369 L7.07478194,22.1307369 Z" id="Vector" transform="translate(6.443359, 22.762160) rotate(45.003917) translate(-6.443359, -22.762160) "></path><path d="M9.4840879,22.1312861 L9.4840879,23.3941325 L8.22124226,23.3941325 L8.22124226,22.1312861 L9.4840879,22.1312861 Z" id="Vector" transform="translate(8.852665, 22.762709) rotate(44.968399) translate(-8.852665, -22.762709) "></path><path d="M11.893267,22.1307366 L11.893267,23.393583 L10.6304221,23.393583 L10.6304221,22.1307366 L11.893267,22.1307366 Z" id="Vector" transform="translate(11.261845, 22.762160) rotate(44.995815) translate(-11.261845, -22.762160) "></path></g></g></g></svg>