<svg xmlns="http://www.w3.org/2000/svg" width="75" height="80"><g fill="#F0F3FF" fill-rule="evenodd"><path d="M74.889 7.821l-7.666 7.652-7.668-7.654L67.221.167l7.668 7.654zM74.887 29.381l-7.664 7.653-7.666-7.65 7.664-7.654 7.666 7.651zM74.897 50.939l-7.66 7.652-7.668-7.648 7.66-7.653 7.668 7.649zM74.887 71.694l-7.664 7.654-7.666-7.651 7.664-7.654 7.666 7.651zM35.289 7.821l-7.666 7.652-7.668-7.654L27.621.167l7.668 7.654zM35.287 29.381l-7.664 7.653-7.666-7.65 7.664-7.654 7.666 7.651zM35.297 50.939l-7.66 7.652-7.668-7.648 7.66-7.653 7.668 7.649zM35.287 71.694l-7.664 7.654-7.666-7.651 7.664-7.654 7.666 7.651zM55.089 7.821l-7.666 7.652-7.668-7.654L47.421.167l7.668 7.654zM55.087 29.381l-7.664 7.653-7.666-7.65 7.664-7.654 7.666 7.651zM55.097 50.939l-7.66 7.652-7.668-7.648 7.66-7.653 7.668 7.649zM55.087 71.694l-7.664 7.654-7.666-7.651 7.664-7.654 7.666 7.651zM15.489 7.821l-7.666 7.652L.155 7.82 7.821.167l7.668 7.654zM15.487 29.381l-7.664 7.653-7.666-7.65L7.82 21.73l7.666 7.651zM15.497 50.939l-7.66 7.652L.17 50.943l7.66-7.653 7.668 7.649zM15.487 71.694l-7.664 7.654-7.666-7.651 7.664-7.654 7.666 7.651z"></path></g></svg>