<svg xmlns="http://www.w3.org/2000/svg" width="226" height="226"><path d="M117.5 158v68h-9v-68h9zm30.141-16.004l48.084 48.084-6.364 6.364-48.084-48.084 6.364-6.364zm-70.017-.735l3.191 3.191 3.173 3.173-3.163 3.163a4.608 4.608 0 01-.019.02L45.45 186.161l-9.545 9.546-6.364-6.364 48.083-48.083zM68 108.65v9H0v-9h68zm90 8.703v-9h68v9h-68zm32.095-87.06l6.364 6.364-48.084 48.083-6.364-6.364 48.084-48.083zm-153.456-.735l48.084 48.084-6.364 6.364L30.275 35.92l6.364-6.364zM117.5 0v68h-9V0h9z" fill="#36348E" fill-rule="evenodd"></path></svg>